<?xml version="1.0" standalone="no"?>
<!DOCTYPE svg PUBLIC "-//W3C//DTD SVG 20010904//EN"
 "http://www.w3.org/TR/2001/REC-SVG-20010904/DTD/svg10.dtd">
<svg version="1.0" xmlns="http://www.w3.org/2000/svg"
 width="2544.000000pt" height="2544.000000pt" viewBox="0 0 2544.000000 2544.000000"
 preserveAspectRatio="xMidYMid meet">
<metadata>
Created by potrace 1.14, written by Peter Selinger 2001-2017
</metadata>
<g transform="translate(0.000000,2544.000000) scale(0.100000,-0.100000)"
fill="#000000" stroke="none">
<path d="M3568 16475 c-1 -1 -41 -6 -88 -9 -47 -4 -105 -9 -130 -12 -25 -3
-58 -7 -75 -9 -16 -2 -30 -4 -30 -5 0 -1 -13 -3 -30 -5 -16 -2 -46 -7 -65 -10
-19 -4 -46 -9 -60 -11 -14 -2 -47 -9 -75 -15 -27 -6 -61 -13 -73 -15 -13 -3
-49 -12 -80 -20 -32 -8 -66 -17 -77 -20 -25 -7 -36 -10 -55 -16 -21 -8 -132
-40 -145 -42 -5 -2 -27 -10 -48 -19 -22 -9 -58 -22 -80 -29 -23 -7 -44 -15
-47 -18 -3 -3 -23 -11 -45 -19 -73 -25 -398 -181 -403 -193 -2 -5 -8 -8 -13
-8 -9 0 -184 -100 -204 -117 -5 -5 -28 -20 -50 -33 -22 -13 -49 -32 -59 -42
-11 -10 -23 -18 -26 -18 -4 0 -20 -11 -36 -25 -16 -14 -34 -25 -41 -25 -6 0
-13 -3 -15 -7 -2 -5 -37 -35 -78 -67 -256 -203 -498 -451 -697 -714 -10 -13
-24 -30 -31 -37 -6 -8 -12 -18 -12 -24 0 -6 -4 -11 -10 -11 -5 0 -10 -6 -10
-14 0 -8 -4 -16 -8 -18 -4 -1 -33 -41 -64 -88 -219 -336 -405 -757 -493 -1120
-9 -36 -17 -72 -19 -80 -10 -38 -16 -67 -20 -90 -3 -14 -10 -50 -15 -80 -18
-89 -18 -93 -26 -150 -3 -30 -8 -66 -10 -80 -26 -174 -26 -723 0 -870 4 -24
15 -106 20 -160 2 -14 4 -26 5 -27 4 -4 5 -13 15 -73 5 -30 9 -57 10 -60 1 -3
5 -21 10 -40 5 -19 10 -42 10 -50 1 -8 5 -22 8 -30 4 -8 9 -26 11 -40 11 -54
49 -190 66 -235 4 -11 22 -60 39 -110 99 -279 230 -539 400 -794 42 -63 81
-122 86 -130 6 -9 12 -18 15 -21 3 -3 19 -23 35 -45 149 -200 393 -457 590
-620 33 -28 62 -52 65 -55 3 -3 48 -37 100 -77 308 -232 687 -431 1050 -553
69 -23 130 -43 135 -45 6 -1 13 -3 17 -4 4 -1 22 -7 40 -13 18 -5 49 -14 68
-18 19 -5 55 -14 80 -20 58 -15 80 -20 105 -25 94 -17 196 -35 225 -39 19 -3
51 -8 70 -11 126 -19 262 -27 475 -28 213 -1 365 7 515 29 25 3 61 8 80 10 19
2 55 8 80 13 25 5 63 13 85 16 66 10 243 55 365 92 63 19 120 36 125 38 6 1
19 5 30 10 11 4 61 23 110 42 158 60 375 161 500 233 22 13 59 34 83 47 47 26
110 67 129 83 7 5 17 10 22 10 5 0 16 6 23 13 7 7 49 37 93 67 44 30 84 60 90
66 5 5 28 23 50 39 22 16 51 39 65 52 14 12 36 31 50 42 252 210 514 504 700
786 44 66 84 125 89 131 5 7 11 20 13 30 3 18 -9 19 -247 20 -137 0 -256 -1
-262 -4 -7 -2 -34 -34 -60 -70 -125 -175 -374 -439 -549 -582 -80 -65 -201
-155 -264 -196 -41 -27 -77 -52 -80 -55 -11 -12 -290 -170 -310 -174 -17 -4
-66 -31 -72 -40 -4 -5 -8 -7 -8 -2 0 4 -11 0 -25 -9 -14 -9 -25 -13 -25 -9 0
4 -6 3 -12 -3 -31 -24 -373 -151 -420 -155 -10 -1 -18 -6 -18 -11 0 -5 -3 -7
-6 -4 -3 4 -45 -4 -92 -17 -48 -13 -100 -25 -117 -28 -16 -3 -55 -10 -85 -16
-79 -15 -111 -21 -145 -26 -259 -40 -714 -39 -955 1 -19 3 -49 7 -67 9 -18 2
-40 6 -50 9 -10 3 -38 8 -63 11 -24 4 -52 11 -62 16 -10 5 -18 8 -18 6 0 -6
-131 27 -230 57 -47 15 -92 28 -100 31 -142 37 -599 250 -672 313 -10 8 -18
11 -18 6 0 -5 -4 -4 -8 1 -8 12 -69 55 -77 55 -3 0 -32 19 -64 43 -33 23 -69
49 -81 57 -53 36 -202 158 -283 233 -82 75 -125 118 -224 223 -39 42 -44 48
-123 144 -25 30 -53 64 -62 74 -10 11 -18 23 -18 27 0 4 -6 14 -13 21 -36 36
-253 378 -240 378 3 0 -1 8 -9 18 -16 18 -128 248 -128 262 0 4 -9 25 -19 47
-48 95 -165 467 -176 558 -1 11 -7 45 -13 75 -6 30 -14 71 -16 90 -3 19 -8 46
-10 60 -17 91 -30 287 -30 460 0 140 10 344 19 385 3 11 7 40 10 65 2 25 7 57
10 73 13 71 16 84 21 117 17 104 111 440 127 451 5 3 8 10 8 15 -1 10 19 74
28 89 3 6 6 15 7 20 11 71 282 576 347 645 9 11 17 22 17 25 0 5 66 97 95 132
6 7 15 18 20 25 139 179 340 382 530 536 6 4 37 28 70 52 33 25 62 48 65 51 6
8 220 147 285 186 74 43 280 147 355 178 36 14 79 32 95 39 17 8 59 24 95 36
36 12 72 24 80 27 8 4 17 7 20 8 3 1 12 5 20 8 14 6 183 52 233 63 26 7 91 21
127 29 52 11 146 27 180 31 19 2 51 7 70 9 129 20 445 30 605 21 85 -5 209
-16 230 -20 26 -5 112 -17 150 -22 42 -5 224 -43 260 -54 17 -5 64 -18 105
-30 83 -23 268 -85 315 -105 33 -14 67 -28 75 -29 3 -1 16 -8 30 -16 14 -8 27
-15 30 -16 29 -7 133 -57 141 -67 3 -5 10 -9 15 -9 14 0 168 -82 208 -110 6
-5 65 -43 131 -87 66 -43 138 -92 160 -110 22 -17 45 -34 50 -38 20 -16 131
-109 169 -143 160 -142 404 -419 511 -580 17 -25 33 -46 38 -48 4 -2 7 -8 7
-14 0 -5 13 -28 29 -51 37 -55 58 -90 60 -102 1 -5 9 -17 16 -25 16 -18 138
-262 181 -362 l28 -68 233 0 c154 0 233 4 233 10 0 6 -14 48 -32 93 -18 45
-32 84 -33 87 -3 36 -187 405 -265 530 -29 47 -58 95 -64 107 -6 13 -14 23
-18 23 -5 0 -8 5 -8 10 0 6 -5 16 -10 23 -32 38 -110 147 -110 154 0 5 -9 15
-20 23 -11 8 -20 20 -20 26 0 7 -3 14 -7 16 -5 2 -30 30 -57 63 -46 55 -69 81
-162 185 -42 47 -251 247 -304 290 -23 19 -53 45 -66 58 -13 12 -26 22 -30 22
-3 0 -21 12 -39 28 -18 15 -45 36 -60 47 -16 11 -33 25 -39 30 -6 6 -29 22
-51 35 -22 13 -42 27 -45 30 -7 9 -98 67 -195 125 -93 56 -315 171 -395 204
-30 13 -73 31 -95 41 -95 42 -296 112 -402 141 -18 5 -50 14 -70 19 -21 6 -49
13 -63 16 -14 3 -50 11 -80 19 -31 8 -73 17 -94 21 -37 5 -48 7 -106 18 -24 5
-75 13 -130 21 -14 2 -52 7 -86 10 -33 4 -74 9 -90 11 -34 6 -570 14 -576 9z"/>
<path d="M2977 14702 c-2 -4 -3 -118 -2 -254 1 -243 0 -248 -20 -249 -11 -1
-129 -2 -262 -3 -133 0 -244 -4 -248 -8 -7 -6 -15 -1110 -18 -2358 l-2 -585
280 -1 280 0 1 -248 c1 -136 4 -250 7 -253 9 -8 535 -8 543 0 4 3 7 117 6 252
0 135 3 245 7 246 42 7 334 2 340 -6 4 -5 7 -119 6 -252 0 -237 0 -243 20
-244 28 -1 485 -1 512 0 l23 1 2 252 3 252 250 1 c278 2 288 3 371 72 115 94
208 269 228 431 3 23 6 183 7 356 l1 313 -28 59 c-28 59 -93 169 -126 213 -21
28 -23 45 -5 63 20 20 100 156 126 213 12 28 26 57 30 65 4 8 8 61 8 117 1 56
3 105 6 110 2 4 1 17 -3 28 -4 11 -3 30 1 43 7 17 6 21 -3 16 -7 -5 -8 -3 -3
6 4 7 7 38 6 69 -1 31 -2 61 -2 66 0 6 1 33 1 62 1 28 -1 57 -5 62 -3 6 -2 11
4 11 5 0 7 12 5 28 -3 15 -6 36 -6 47 -1 33 -27 127 -50 180 -59 133 -181 271
-271 306 -38 15 -129 23 -197 18 -14 0 -34 -1 -45 0 -11 0 -45 0 -75 0 -30 0
-62 0 -70 1 -8 0 -28 0 -45 -1 -16 -1 -39 -1 -50 0 -11 0 -32 1 -47 1 -16 0
-28 5 -29 12 0 7 -1 121 -2 253 l-2 240 -275 0 -275 0 0 -248 c-1 -171 -4
-250 -12 -255 -6 -4 -85 -7 -175 -7 l-163 1 -3 256 -2 256 -275 0 c-151 0
-276 -3 -278 -6z m1514 -1082 c0 -16 0 -342 -1 -517 l0 -101 -482 0 c-266 0
-493 -1 -505 -1 -21 -1 -22 -5 -23 -133 -1 -161 -2 -136 2 -293 l3 -130 480
-2 c264 -1 490 -2 503 -2 l23 -1 -3 -213 c-2 -116 -7 -218 -12 -225 -4 -6 -4
-12 1 -12 4 0 7 -26 6 -57 0 -32 -2 -74 -2 -93 l-1 -36 -617 1 -618 0 3 570
c5 749 9 1260 11 1260 0 1 278 1 616 1 548 0 615 -2 616 -16z"/>
<path d="M1259 14196 c-1 -1 -3 -110 -4 -243 -2 -179 0 -243 8 -243 16 -1 700
-1 762 0 l50 0 1 243 0 243 -408 0 c-224 0 -409 0 -409 0z"/>
<path d="M8444 14128 c1 -37 -3 -68 -7 -68 -5 0 -5 -5 -1 -12 8 -13 9 -206 1
-214 -2 -3 -1 -21 3 -40 4 -18 5 -34 1 -34 -3 0 -7 -228 -7 -508 -1 -279 -3
-739 -5 -1022 -2 -472 -1 -520 15 -575 10 -33 21 -64 25 -70 3 -5 6 -12 7 -15
9 -48 87 -166 148 -225 63 -61 130 -97 189 -100 25 -2 50 -6 56 -9 6 -4 11 -2
11 4 0 7 6 8 16 2 8 -5 37 -5 62 -1 26 4 55 3 65 -2 11 -7 17 -6 17 1 0 6 5 8
11 5 14 -10 59 -14 59 -6 0 4 17 5 38 4 66 -5 152 -4 162 2 5 3 19 1 30 -5 14
-8 20 -8 20 0 0 6 5 8 11 5 14 -10 59 -14 59 -6 0 4 17 5 38 4 55 -5 72 -5
127 -1 28 3 58 1 68 -4 11 -6 17 -5 17 2 0 6 5 8 11 5 14 -10 59 -14 59 -6 0
4 17 5 38 4 66 -5 152 -4 162 2 5 3 19 1 30 -5 14 -8 20 -8 20 0 0 6 5 8 11 5
14 -10 59 -14 59 -6 0 4 17 5 38 4 20 -2 48 -3 62 -3 14 0 52 -1 85 -1 111 0
115 1 115 25 3 228 1 528 -3 532 -3 3 -256 6 -562 6 l-556 0 4 569 c2 313 7
572 10 576 4 3 257 6 562 6 l554 0 3 180 c2 98 0 181 -5 184 -4 2 -4 9 -1 15
7 11 6 169 -1 176 -3 3 -255 5 -562 6 l-557 1 3 175 c7 449 7 500 -3 502 -6 1
-191 2 -412 3 l-401 1 1 -68z"/>
<path d="M20745 14191 c-2 -4 -3 -35 -3 -71 0 -36 -3 -486 -7 -1000 -8 -1035
-9 -1407 -2 -1430 5 -19 13 -42 39 -110 48 -126 143 -247 238 -302 57 -33 147
-47 217 -34 13 3 25 1 28 -4 3 -5 15 -6 29 0 12 4 28 5 35 0 7 -4 29 -4 49 1
20 4 40 5 46 2 5 -4 35 -5 65 -4 31 1 76 1 101 1 76 -1 105 0 128 5 12 2 24 0
27 -5 3 -5 19 -5 36 0 20 6 39 6 50 -1 13 -7 19 -6 19 1 0 6 5 8 11 5 14 -10
59 -14 59 -6 0 4 17 5 38 4 66 -5 152 -4 162 2 5 3 19 1 30 -5 14 -8 20 -8 20
0 0 6 5 8 11 5 14 -10 59 -14 59 -6 0 4 17 5 38 4 55 -5 72 -5 127 -1 28 3 58
1 68 -4 11 -6 17 -5 17 2 0 6 5 8 11 5 14 -10 59 -14 59 -6 0 9 63 6 78 -3 7
-4 12 -3 12 2 0 6 7 9 15 8 14 -1 16 32 15 273 0 151 -2 277 -5 279 -2 2 -254
4 -560 4 l-556 0 4 569 c2 313 6 572 10 575 4 4 255 7 559 7 l553 0 5 61 c3
34 2 80 -1 104 -3 23 -3 45 1 47 7 4 4 58 -4 80 -2 6 0 19 4 30 4 11 4 32 -1
47 -4 14 -5 29 -2 32 7 7 6 146 -1 154 -3 3 -255 5 -560 5 l-554 0 2 339 c1
186 -1 339 -4 339 -17 5 -812 4 -815 0z"/>
<path d="M6387 13524 c-3 -4 -86 -7 -184 -8 -189 -3 -205 -6 -278 -56 -50 -34
-61 -45 -95 -90 -14 -18 -30 -38 -35 -44 -11 -11 -71 -132 -86 -171 -8 -22
-17 -50 -25 -87 -12 -51 -21 -1335 -9 -1378 3 -14 8 -32 10 -40 2 -8 4 -16 5
-17 2 -2 3 -6 4 -10 3 -22 63 -144 89 -183 44 -66 126 -143 183 -170 33 -17
68 -25 110 -26 34 0 66 -4 73 -8 6 -4 11 -2 11 4 0 6 5 8 11 5 14 -10 59 -14
59 -6 0 4 17 5 38 4 41 -4 59 -4 117 -3 22 0 54 0 70 0 17 0 41 2 53 5 12 2
24 0 27 -5 3 -5 15 -6 29 0 12 4 28 5 35 0 7 -4 29 -4 49 1 20 4 40 5 46 2 5
-4 35 -5 65 -4 31 1 76 1 101 1 76 -1 105 0 128 5 12 2 24 0 27 -5 3 -5 15 -6
29 0 12 4 28 5 35 0 7 -4 29 -4 49 1 20 4 40 5 46 2 5 -4 35 -5 65 -4 31 1 76
1 101 1 76 -1 105 0 128 5 12 2 24 0 27 -5 3 -5 15 -6 29 0 12 4 28 5 35 0 7
-4 29 -4 49 1 20 4 40 5 46 2 5 -4 35 -5 65 -4 31 1 76 1 101 1 76 -1 105 0
128 5 12 2 24 0 27 -5 3 -4 13 -6 23 -4 16 5 17 26 17 279 0 150 -3 277 -7
280 -4 4 -346 7 -762 7 l-755 0 5 571 c2 314 6 573 9 575 7 8 734 6 742 -1 7
-7 5 -279 -2 -285 -2 -3 -119 -4 -260 -4 -184 0 -255 -3 -256 -12 -1 -6 -2
-131 -3 -278 -1 -262 -1 -268 19 -269 11 0 227 -1 480 -1 483 -1 518 2 580 45
29 19 119 108 140 138 29 41 65 99 60 99 -3 0 3 17 14 38 42 82 53 165 56 396
2 249 0 265 -72 415 -49 101 -62 119 -138 193 -87 84 -112 92 -317 92 -98 1
-178 5 -178 9 0 5 -5 5 -11 1 -15 -9 -210 -11 -215 -2 -3 4 -15 4 -27 0 -28
-9 -460 -8 -475 2 -7 4 -12 4 -12 -1 0 -9 -212 -9 -227 0 -6 4 -13 4 -16 1z"/>
<path d="M18227 13523 c-4 -3 -62 -6 -130 -6 l-123 0 -3 -711 c-2 -391 -4
-1059 -5 -1483 l-3 -773 26 -1 c31 -1 747 -1 776 0 22 1 23 25 29 1791 1 327
5 600 8 606 5 7 98 10 285 9 153 0 284 4 291 8 6 5 12 6 12 1 0 -5 36 -9 80
-8 l79 0 -4 -545 c-2 -300 -4 -559 -4 -576 l-1 -30 -260 1 c-177 0 -260 -3
-261 -10 -7 -60 -2 -546 6 -549 6 -1 228 -2 495 -1 463 1 487 2 530 21 67 30
169 123 193 176 6 15 15 27 19 27 13 0 74 151 85 209 2 14 8 42 12 61 4 19 9
208 10 420 2 212 4 490 5 619 2 277 -8 335 -82 474 -54 102 -143 199 -218 236
-45 23 -117 33 -214 30 -179 -4 -330 -3 -330 4 0 5 -5 5 -11 1 -15 -9 -210
-11 -215 -2 -3 4 -15 4 -27 0 -28 -9 -139 -8 -155 2 -7 4 -12 4 -12 -1 0 -4
-51 -7 -112 -5 -139 3 -101 3 -319 0 -102 -1 -190 2 -197 6 -7 4 -12 4 -12 -1
0 -9 -212 -9 -227 0 -6 4 -13 4 -16 0z"/>
<path d="M23667 13524 c-3 -3 -68 -7 -144 -8 -132 -2 -140 -3 -192 -31 -56
-31 -131 -102 -165 -158 -11 -17 -23 -34 -26 -37 -8 -6 -68 -136 -75 -160 -11
-41 -18 -85 -20 -131 -1 -31 -5 -61 -9 -68 -4 -6 -4 -11 1 -11 4 0 8 -18 8
-40 0 -22 -3 -40 -7 -40 -4 0 -3 -13 2 -29 4 -15 4 -34 0 -41 -4 -7 -4 -25 0
-41 5 -15 6 -30 3 -33 -9 -9 -10 -970 -1 -1001 25 -84 31 -103 44 -135 8 -19
20 -44 26 -55 6 -11 19 -33 27 -49 24 -44 111 -136 156 -164 22 -14 40 -24 41
-21 0 2 9 -3 19 -11 21 -17 207 -28 273 -15 12 2 24 0 27 -5 3 -5 15 -6 29 0
12 4 28 5 35 0 7 -4 29 -4 49 1 20 4 40 5 46 2 5 -4 35 -5 65 -4 31 1 76 1
101 1 76 -1 105 0 128 5 12 2 24 0 27 -5 3 -5 15 -6 29 0 12 4 28 5 35 0 7 -4
29 -4 49 1 20 4 40 5 46 2 5 -4 35 -5 65 -4 31 1 76 1 101 1 76 -1 105 0 128
5 12 2 24 0 27 -5 3 -5 15 -6 29 0 12 4 28 5 35 0 7 -4 29 -4 49 1 20 4 40 5
46 2 5 -4 35 -5 65 -4 99 3 136 3 146 0 6 -2 35 0 66 5 84 11 164 67 247 172
29 36 101 184 104 214 0 3 4 15 9 28 20 52 23 153 23 762 l1 635 -23 69 c-42
124 -82 197 -146 266 -48 52 -97 90 -136 107 -28 12 -125 25 -175 23 -138 -4
-1025 -1 -1033 4 -7 4 -12 4 -12 -1 0 -9 -212 -9 -227 0 -6 4 -13 4 -16 1z
m944 -577 c6 -8 1 -1114 -5 -1132 -3 -7 -126 -11 -377 -10 l-374 0 4 350 c1
193 3 449 4 570 1 121 4 222 8 225 13 9 734 6 740 -3z"/>
<path d="M13575 13507 c-25 -4 -65 -20 -88 -34 -52 -33 -127 -104 -127 -120 0
-7 -4 -13 -10 -13 -22 0 -107 -181 -125 -266 -11 -53 -14 -190 -17 -1012 -2
-665 -1 -814 10 -821 7 -4 31 -5 52 -1 21 4 44 4 50 0 7 -4 28 -4 48 1 20 4
40 5 46 2 5 -4 35 -5 65 -4 31 1 76 1 101 1 76 -1 105 0 128 5 12 2 24 0 27
-5 3 -5 15 -6 29 0 12 4 28 5 35 0 7 -4 29 -4 49 1 20 4 40 5 46 2 8 -5 82 -6
123 -1 9 1 12 99 13 387 2 477 7 1314 9 1321 1 3 184 5 408 5 l408 0 0 278 c1
183 -3 277 -10 278 -69 5 -1235 2 -1270 -4z"/>
<path d="M15221 13510 c-6 -4 -13 -746 -14 -1580 0 -243 5 -275 76 -418 29
-59 60 -103 107 -151 101 -103 154 -123 330 -121 30 0 75 0 100 0 76 -1 105 0
128 5 12 2 24 0 27 -5 3 -5 15 -6 29 0 12 4 28 5 35 0 7 -4 29 -4 49 1 20 4
40 5 46 2 5 -4 35 -5 65 -4 31 1 76 1 101 1 76 -1 105 0 128 5 12 2 24 0 27
-5 3 -5 15 -6 29 0 12 4 28 5 35 0 7 -4 29 -4 49 1 20 4 40 5 46 2 5 -4 35 -5
65 -4 73 3 93 3 96 -1 4 -4 7 -108 6 -188 l-1 -55 -625 0 -625 0 2 -280 3
-280 845 1 c465 0 856 2 870 5 30 5 118 58 152 92 54 54 97 115 131 187 31 66
41 95 64 185 8 31 12 399 15 1550 l3 1060 -407 0 c-225 0 -409 -2 -409 -5 -2
-7 -7 -465 -13 -1080 -3 -283 -5 -540 -5 -570 l-1 -56 -375 0 -375 0 0 50 c-1
95 1 640 4 1149 2 279 0 508 -3 508 -20 4 -804 3 -810 -1z"/>
<path d="M1249 13453 c0 -32 -3 -420 -5 -863 -3 -443 -6 -818 -7 -835 -1 -16
1 -40 5 -51 4 -12 4 -24 1 -28 -4 -4 -8 -374 -4 -421 1 -7 134 -11 411 -11
l410 0 0 151 c1 82 3 592 6 1133 l5 982 -410 0 -411 0 -1 -57z"/>
<path d="M11076 13503 c-67 -17 -175 -117 -239 -220 -23 -38 -67 -139 -71
-164 -1 -8 -5 -20 -10 -28 -12 -19 -24 -476 -12 -488 3 -3 2 -13 -2 -22 -12
-28 -6 -871 7 -916 6 -22 13 -47 15 -56 7 -26 49 -112 78 -159 60 -95 179
-195 243 -204 8 -1 16 -4 19 -7 2 -2 395 -4 872 -3 l868 1 0 272 c1 150 -1
276 -4 280 -3 5 -53 7 -113 7 -59 -1 -107 3 -107 7 0 5 -5 5 -12 1 -16 -10
-308 -11 -308 -1 0 4 -8 4 -17 0 -10 -5 -61 -7 -113 -6 -52 2 -99 3 -105 3
-93 -1 -493 -1 -500 -1 -6 1 -9 92 -8 258 2 142 4 400 6 573 l2 315 643 3 642
2 1 63 c0 74 0 467 -1 485 0 9 -182 12 -877 11 -483 -1 -887 -4 -897 -6z"/>
</g>
</svg>
